<?xml version="1.0" encoding="UTF-8" standalone="no"?>
<!-- Created with Inkscape (http://www.inkscape.org/) -->

<svg
   xmlns:dc="http://purl.org/dc/elements/1.1/"
   xmlns:cc="http://creativecommons.org/ns#"
   xmlns:rdf="http://www.w3.org/1999/02/22-rdf-syntax-ns#"
   xmlns:svg="http://www.w3.org/2000/svg"
   xmlns="http://www.w3.org/2000/svg"
   xmlns:xlink="http://www.w3.org/1999/xlink"
   xmlns:sodipodi="http://sodipodi.sourceforge.net/DTD/sodipodi-0.dtd"
   xmlns:inkscape="http://www.inkscape.org/namespaces/inkscape"
   width="210mm"
   height="297mm"
   viewBox="0 0 744.09448819 1052.3622047"
   id="svg2"
   version="1.1"
   inkscape:version="0.92.3 (2405546, 2018-03-11)"
   sodipodi:docname="kadlu_logo_002.svg"
   inkscape:export-filename="/home/oliskir/Dropbox/Meridian/kadlu_logo_002.png"
   inkscape:export-xdpi="789.47369"
   inkscape:export-ydpi="789.47369">
  <defs
     id="defs4" />
  <sodipodi:namedview
     id="base"
     pagecolor="#ffffff"
     bordercolor="#666666"
     borderopacity="1.0"
     inkscape:pageopacity="0.0"
     inkscape:pageshadow="2"
     inkscape:zoom="1"
     inkscape:cx="181.07143"
     inkscape:cy="771.35413"
     inkscape:document-units="px"
     inkscape:current-layer="layer1"
     showgrid="false"
     inkscape:window-width="1853"
     inkscape:window-height="1025"
     inkscape:window-x="1987"
     inkscape:window-y="28"
     inkscape:window-maximized="1" />
  <metadata
     id="metadata7">
    <rdf:RDF>
      <cc:Work
         rdf:about="">
        <dc:format>image/svg+xml</dc:format>
        <dc:type
           rdf:resource="http://purl.org/dc/dcmitype/StillImage" />
        <dc:title />
      </cc:Work>
    </rdf:RDF>
  </metadata>
  <g
     inkscape:label="Layer 1"
     inkscape:groupmode="layer"
     id="layer1">
    <circle
       style="opacity:1;fill:#adf0ff;fill-opacity:0.39215687;stroke:#3893a8;stroke-opacity:1;stroke-width:5;stroke-miterlimit:4;stroke-dasharray:none"
       id="path4222"
       cx="275"
       cy="229.3622"
       r="140" />
    <path
       sodipodi:type="spiral"
       style="fill:none;fill-rule:evenodd;stroke:#3893a8;stroke-width:1.42687249;stroke-linecap:butt;stroke-linejoin:miter;stroke-miterlimit:4;stroke-dasharray:none;stroke-opacity:1"
       id="path3346"
       sodipodi:cx="317"
       sodipodi:cy="300.36218"
       sodipodi:expansion="1"
       sodipodi:revolution="1.1947645"
       sodipodi:radius="62.515778"
       sodipodi:argument="-18.158895"
       sodipodi:t0="0.23320907"
       d="m 305.85151,309.75717 c -12.37554,-4.53946 -12.92917,-20.96275 -6.67612,-30.54642 10.82336,-16.58832 34.48343,-16.56154 48.979,-5.1028 20.97238,16.57866 20.30546,48.1696 3.52947,67.41157 -13.68653,15.69837 -35.57826,22.02719 -55.74443,17.70415"
       transform="matrix(2.0738119,0,0,2.1315858,-391.50243,-408.53087)" />
    <path
       sodipodi:type="spiral"
       style="fill:none;fill-rule:evenodd;stroke:#3893a8;stroke-width:1px;stroke-linecap:butt;stroke-linejoin:miter;stroke-opacity:1"
       id="path3346-3"
       sodipodi:cx="317"
       sodipodi:cy="300.36218"
       sodipodi:expansion="1"
       sodipodi:revolution="0.93076777"
       sodipodi:radius="48.702217"
       sodipodi:argument="-18.158895"
       sodipodi:t0="0.26897141"
       d="m 308.63283,310.44124 c -12.38276,-1.57585 -15.77397,-16.93464 -11.77686,-26.80171 7.14685,-17.64233 29.57015,-21.71169 45.22216,-13.48635 15.36088,8.07234 23.51087,25.53747 22.04108,42.52509"
       transform="matrix(2.9658875,0,0,2.5626382,-668.76088,-542.85332)" />
    <path
       sodipodi:type="spiral"
       style="fill:none;fill-rule:evenodd;stroke:#3893a8;stroke-width:1px;stroke-linecap:butt;stroke-linejoin:miter;stroke-opacity:1"
       id="path3346-3-6"
       sodipodi:cx="317"
       sodipodi:cy="300.36218"
       sodipodi:expansion="1"
       sodipodi:revolution="0.86741233"
       sodipodi:radius="45.387157"
       sodipodi:argument="-18.158895"
       sodipodi:t0="0.28861696"
       d="m 308.63283,310.44124 c -12.38275,-1.57584 -15.77397,-16.93464 -11.77686,-26.8017 7.14684,-17.64234 29.57014,-21.7117 45.22215,-13.48636 9.43055,4.95587 16.47537,13.71583 19.84956,23.76713"
       transform="matrix(3.2219894,0,0,2.988901,-753.5308,-675.86745)" />
    <text
       xml:space="preserve"
       style="font-style:normal;font-variant:normal;font-weight:normal;font-stretch:normal;font-size:74.59638977px;line-height:0%;font-family:'Lobster Two';-inkscape-font-specification:'Lobster Two, Normal';text-align:start;letter-spacing:0px;word-spacing:0px;writing-mode:lr-tb;text-anchor:start;fill:#ff7400;fill-opacity:1;stroke:none;stroke-width:1px;stroke-linecap:butt;stroke-linejoin:miter;stroke-opacity:1"
       id="text4210"
       transform="rotate(13.103799,256.31964,255.5244)"><textPath
         xlink:href="#path4232"
         id="textPath4238"
         style="font-style:normal;font-variant:normal;font-weight:bold;font-stretch:normal;font-size:74.59624481px;line-height:125%;font-family:'Lobster Two';-inkscape-font-specification:'Lobster Two, Bold';text-align:start;writing-mode:lr-tb;text-anchor:start"><tspan
   id="tspan4214"
   style="font-style:normal;font-variant:normal;font-weight:bold;font-stretch:normal;font-size:74.59624481px;line-height:125%;font-family:'Lobster Two';-inkscape-font-specification:'Lobster Two, Bold';text-align:start;writing-mode:lr-tb;text-anchor:start;fill:#ff7400;fill-opacity:1"
   y="429.23761"
   x="-21.74752">k a d  l u</tspan></textPath></text>
    <path
       sodipodi:type="spiral"
       style="fill:none;fill-rule:evenodd;stroke:#000000;stroke-width:0;stroke-linecap:butt;stroke-linejoin:miter;stroke-opacity:1;stroke-miterlimit:4;stroke-dasharray:none"
       id="path4232"
       sodipodi:cx="199"
       sodipodi:cy="772.36218"
       sodipodi:expansion="1"
       sodipodi:revolution="1.3345264"
       sodipodi:radius="475.14307"
       sodipodi:argument="-7.4645705"
       sodipodi:t0="0.61223876"
       d="M -1.4301079,561.52773 C 108.25271,407.3397 331.57735,399.1991 474.34542,510.60462 c 186.87992,145.82709 193.73177,424.88147 47.73961,601.61398 -11.08343,13.4171 -22.91931,26.2118 -35.4252,38.3139"
       transform="matrix(0.22384561,-0.26743456,-0.35005576,-0.17101291,429.74823,453.63691)" />
    <path
       style="opacity:1;fill:#11b3c5;fill-opacity:0.63423425;stroke:#3893a8;stroke-width:3;stroke-miterlimit:4;stroke-dasharray:none;stroke-opacity:1"
       d="m 262.16476,365.7478 c -4.95367,-0.45457 -11.70367,-1.47711 -15,-2.27233 l -5.99333,-1.44584 8.5,-0.1148 c 16.09411,-0.21735 34.41183,-4.33715 49.61695,-11.15922 16.54849,-7.42481 36.11353,-23.68624 46.39853,-38.56402 28.79473,-41.65305 25.54861,-98.82081 -7.49647,-132.02101 -23.37816,-23.4879 -58.07361,-29.97425 -86.51901,-16.1748 -20.87355,10.12619 -34.48843,32.66806 -32.59523,53.96726 0.72463,8.15243 3.56969,17.59606 6.57091,21.81089 3.74251,5.25586 1.31972,4.72209 -4.10307,-0.90397 -6.17794,-6.4095 -10.43586,-15.36383 -11.95183,-25.1345 -4.85764,-31.30828 19.70999,-60.13574 59.77224,-70.13626 11.97122,-2.98831 38.50747,-3.2025 51.30698,-0.41412 43.16377,9.40323 76.03384,40.50431 86.2656,81.623 1.60682,6.45741 2.12822,11.74411 2.16972,22 0.0516,12.73789 -0.13476,14.06453 -3.30027,23.5 -7.55851,22.52972 -17.87677,39.35378 -34.07741,55.56367 -29.28303,29.29974 -68.65683,43.62988 -109.56431,39.87605 z"
       id="path4291"
       inkscape:connector-curvature="0" />
    <path
       style="opacity:1;fill:#06e0df;fill-opacity:0.66846848;stroke:#3893a8;stroke-width:3;stroke-miterlimit:4;stroke-dasharray:none;stroke-opacity:1"
       d="m 208.76137,229.79982 c -1.72878,-2.80962 -4.33645,-8.56966 -5.79481,-12.80007 -2.26312,-6.56484 -2.65391,-9.37642 -2.66751,-19.19167 -0.0181,-13.08798 1.48993,-19.56176 7.01546,-30.11587 10.55806,-20.16657 31.25702,-35.67059 56.85692,-42.58721 9.27125,-2.50493 11.45749,-2.70411 30,-2.73328 17.38784,-0.0274 21.13726,0.25653 28.7074,2.17358 35.54391,9.00106 64.48873,31.83225 81.07873,63.95355 4.91164,9.50984 7.78564,21.85384 7.63882,32.80923 l -0.067,5 -1.96901,-7 c -1.08295,-3.85 -4.16862,-11.52988 -6.85704,-17.0664 -17.84363,-36.74701 -53.53968,-60.65195 -96.0193,-64.30221 -40.01138,-3.43816 -76.93741,12.0308 -93.29492,39.08285 -9.59376,15.86616 -10.79292,36.6122 -3.01353,52.13519 3.28496,6.5548 2.27183,6.95794 -1.61421,0.64231 z"
       id="path4305"
       inkscape:connector-curvature="0" />
    <path
       sodipodi:type="spiral"
       style="fill:none;fill-rule:evenodd;stroke:#3893a8;stroke-width:1.42687249;stroke-linecap:butt;stroke-linejoin:miter;stroke-miterlimit:4;stroke-dasharray:none;stroke-opacity:1"
       id="path3346-4"
       sodipodi:cx="317"
       sodipodi:cy="300.36218"
       sodipodi:expansion="1"
       sodipodi:revolution="0.81784433"
       sodipodi:radius="42.793522"
       sodipodi:argument="-18.158895"
       sodipodi:t0="0.28257537"
       d="m 310.45497,310.5302 c -12.01218,0.37443 -17.14588,-14.01055 -14.62245,-23.79326 4.62367,-17.92484 25.81702,-24.54083 41.87295,-18.5417 7.06101,2.63828 13.22685,7.39826 17.75575,13.40474"
       transform="matrix(3.2981851,0,0,3.1224404,-791.40145,-721.33901)" />
    <path
       style="opacity:1;fill:#7af7cf;fill-opacity:0.66846848;stroke:#3893a8;stroke-width:3;stroke-miterlimit:4;stroke-dasharray:none;stroke-opacity:1"
       d="m 202.8353,234.29931 c -11.23218,-10.39902 -17.45354,-26.42914 -17.46129,-44.99123 -0.004,-8.55298 0.43508,-11.26776 3.03136,-18.76122 4.87549,-14.07174 12.17817,-24.68196 23.83289,-34.62732 22.65814,-19.33495 58.1407,-27.90073 91.20127,-22.01672 6.96733,1.24002 22.61412,5.85638 21.98434,6.48616 -0.24955,0.24955 -5.12505,-0.28614 -10.83444,-1.19042 -14.84437,-2.35112 -36.91766,-1.51023 -49.99177,1.90445 -23.71419,6.19364 -40.94999,16.87353 -53.34223,33.0527 -19.86606,25.9369 -20.61751,57.70717 -1.97269,83.40237 2.92908,4.03669 -0.3668,2.37083 -6.44744,-3.25877 z"
       id="path4337"
       inkscape:connector-curvature="0" />
  </g>
</svg>
